<svg width="50" height="50" viewBox="0 0 50 50" fill="none" xmlns="http://www.w3.org/2000/svg">
<g clip-path="url(#clip0_17_44)">
<path d="M39.7369 25.4812L10.2632 26.2163V26.5521H39.7369V25.4812Z" fill="#867A7A"/>
<path d="M39.7369 27.9666L10.2632 28.7016V29.0375H39.7369V27.9666Z" fill="#867A7A"/>
<path d="M39.7369 30.4519L10.2632 31.187V31.5229H39.7369V30.4519Z" fill="#867A7A"/>
<path d="M39.7369 32.9373L10.2632 33.6723V34.0082H39.7369V32.9373Z" fill="#867A7A"/>
<path d="M39.7369 35.4226L10.2632 36.1577V36.4936H39.7369V35.4226Z" fill="#867A7A"/>
<path d="M39.7369 37.908L10.2632 38.643V38.9789H39.7369V37.908Z" fill="#867A7A"/>
<path d="M10.2632 12.0922L39.7369 11.3571V11.0212H10.2632V12.0922Z" fill="#867A7A"/>
<path d="M10.2632 14.5775L39.7369 13.8425V13.5066H10.2632V14.5775Z" fill="#867A7A"/>
<path d="M10.2632 17.0629L39.7369 16.3278V15.9919H10.2632V17.0629Z" fill="#867A7A"/>
<path d="M10.2632 19.5482L39.7369 18.8132V18.4773H10.2632V19.5482Z" fill="#867A7A"/>
<path d="M10.2632 22.0333L39.7369 21.2983V20.9624H10.2632V22.0333Z" fill="#867A7A"/>
<path d="M10.2632 24.5187L39.7369 23.7836V23.4478H10.2632V24.5187Z" fill="#867A7A"/>
</g>
<defs>
<clipPath id="clip0_17_44">
<rect width="30" height="28" fill="white" transform="translate(10 11)"/>
</clipPath>
</defs>
</svg>
