<svg width="80" height="80" viewBox="0 0 80 80" fill="none" xmlns="http://www.w3.org/2000/svg">
<g filter="url(#filter0_d_95_204)">
<path d="M31.8085 57.2934C31.8085 57.2934 29.425 58.6588 33.507 59.1195C38.453 59.6756 40.9805 59.5959 46.4295 58.582C46.4295 58.582 47.865 59.4655 49.866 60.2313C37.6465 65.3845 22.212 59.9325 31.8085 57.2934ZM30.3145 50.5677C30.3145 50.5677 27.6405 52.5163 31.726 52.9327C37.0095 53.4696 41.181 53.5134 48.403 52.1452C48.403 52.1452 49.3995 53.1418 50.969 53.6862C36.198 57.9387 19.746 54.0209 30.3145 50.5677V50.5677Z" fill="#0074BD"/>
<path d="M42.901 39.1568C45.9135 42.5701 42.111 45.6389 42.111 45.6389C42.111 45.6389 49.7555 41.7551 46.2455 36.8893C42.966 32.3538 40.452 30.1011 54.063 22.3304C54.063 22.3309 32.6975 27.582 42.901 39.1568V39.1568Z" fill="#EA2D2E"/>
<path d="M59.0615 62.269C59.0615 62.269 60.826 63.7012 57.1175 64.8082C50.0665 66.9108 27.7645 67.5447 21.5705 64.8923C19.345 63.9385 23.52 62.616 24.8335 62.3369C26.203 62.045 26.985 62.0982 26.985 62.0982C24.5085 60.3819 10.9785 65.4697 20.1135 66.929C45.024 70.9039 65.522 65.1389 59.0615 62.269V62.269ZM32.956 43.5978C32.956 43.5978 21.613 46.2502 28.9395 47.2144C32.0335 47.622 38.1985 47.5284 43.945 47.054C48.64 46.6656 53.3515 45.8363 53.3515 45.8363C53.3515 45.8363 51.6975 46.5347 50.4995 47.3389C38.9785 50.3221 16.7275 48.9326 23.134 45.8831C28.55 43.3045 32.956 43.5978 32.956 43.5978V43.5978ZM53.3045 54.7936C65.015 48.8052 59.6 43.05 55.8205 43.8252C54.8965 44.0147 54.482 44.1796 54.482 44.1796C54.482 44.1796 54.826 43.6485 55.482 43.4201C62.9585 40.8337 68.7075 51.0505 53.0705 55.0973C53.0705 55.0963 53.25 54.9364 53.3045 54.7936V54.7936Z" fill="#0074BD"/>
<path d="M46.2455 9.7811C46.2455 9.7811 52.7295 16.1677 40.094 25.9854C29.961 33.8633 37.7835 38.3541 40.0905 43.4871C34.175 38.234 29.836 33.6089 32.7465 29.3047C37.0205 22.988 48.861 19.9241 46.2455 9.7811Z" fill="#EA2D2E"/>
<path d="M34.107 71.026C45.345 71.7332 62.607 70.6322 63.0155 65.3973C63.0155 65.3973 62.23 67.3818 53.727 68.9563C44.134 70.7341 32.3 70.5269 25.2835 69.3865C25.2835 69.387 26.721 70.5584 34.107 71.026V71.026Z" fill="#0074BD"/>
</g>
<defs>
<filter id="filter0_d_95_204" x="-12" y="-8" width="104" height="104" filterUnits="userSpaceOnUse" color-interpolation-filters="sRGB">
<feFlood flood-opacity="0" result="BackgroundImageFix"/>
<feColorMatrix in="SourceAlpha" type="matrix" values="0 0 0 0 0 0 0 0 0 0 0 0 0 0 0 0 0 0 127 0" result="hardAlpha"/>
<feOffset dy="4"/>
<feGaussianBlur stdDeviation="6"/>
<feComposite in2="hardAlpha" operator="out"/>
<feColorMatrix type="matrix" values="0 0 0 0 0 0 0 0 0 0 0 0 0 0 0 0 0 0 0.1 0"/>
<feBlend mode="normal" in2="BackgroundImageFix" result="effect1_dropShadow_95_204"/>
<feBlend mode="normal" in="SourceGraphic" in2="effect1_dropShadow_95_204" result="shape"/>
</filter>
</defs>
</svg>
