<svg width="80" height="80" viewBox="0 0 80 80" fill="none" xmlns="http://www.w3.org/2000/svg">
<g filter="url(#filter0_d_95_192)">
<path d="M68.8174 67.5545L67.5911 66.3653C66.4291 64.8222 64.9342 63.4666 63.3653 62.3411C62.1142 61.443 59.3055 60.2298 58.7833 58.7744L58.6872 58.683C59.5745 58.5827 60.6105 58.262 61.4294 58.0422C62.8047 57.6738 63.94 57.7689 65.3603 57.4023C66.0006 57.2195 66.7192 57.0363 67.188 56.8534V56.4878C66.7192 55.7514 66.0503 54.7764 65.2675 54.1098C63.2195 52.3661 61.0295 50.6238 58.728 49.1706C57.4516 48.3653 55.8963 47.8417 54.5439 47.1588C54.0888 46.9286 53.3008 46.8091 52.9999 46.4266C52.2888 45.5209 51.9086 44.3725 51.3602 43.3173C50.2122 41.1063 49.0872 38.6917 48.07 36.3653C47.3763 34.7791 46.9249 33.2153 46.0595 31.7922C41.9064 24.9639 37.4369 20.8431 30.5125 16.7922C29.0383 15.9306 27.2645 15.5908 25.3895 15.1455C24.3845 15.085 23.3781 15.0236 22.3722 14.9622C21.7577 14.7063 21.1188 13.9548 20.5431 13.5902C18.2481 12.1408 12.3639 8.98844 10.6647 13.1331C9.59173 15.7492 12.2678 18.3011 13.225 19.6272C13.8977 20.5563 14.7578 21.5992 15.2374 22.645C15.5538 23.3327 15.6077 24.0222 15.8781 24.7492C16.5428 26.5408 17.1208 28.4898 17.9814 30.145C18.416 30.9831 18.895 31.8653 19.4449 32.6144C19.7814 33.0742 20.3589 33.2767 20.4503 33.9864C19.886 34.7767 19.8536 36.0039 19.5363 37.0052C18.1066 41.5122 18.6466 47.1147 20.7255 50.4503C21.363 51.475 22.8658 53.6711 24.9325 52.8283C26.74 52.0923 26.4447 49.8105 26.9617 47.7977C27.0785 47.342 26.875 47.0064 27.3438 46.7003V46.7917C27.8234 47.9044 28.3364 49.0024 28.8822 50.0842C30.101 52.0469 32.1114 54.0977 33.9438 55.4814C34.8939 56.1991 35.7813 57.4394 36.7188 57.8594V57.812H36.8224C36.5847 57.3433 36.212 57.265 35.9083 56.9664C35.1925 56.2652 34.3961 55.3811 33.805 54.5772C32.1381 52.3145 30.6653 49.8325 29.3233 47.2544C28.682 46.0234 28.1247 44.6627 27.5847 43.4102C27.377 42.9273 27.3794 42.1952 26.9453 41.9453C26.3533 42.8631 25.4819 43.6047 25.0239 44.6889C24.2922 46.4214 24.198 48.5345 23.9266 50.725C23.7658 50.7822 23.8375 50.7428 23.7433 50.8159C22.4692 50.5089 22.022 49.1978 21.5481 48.0723C20.3505 45.227 20.1283 40.6459 21.182 37.3712C21.4549 36.5233 22.6872 33.8552 22.188 33.0719C21.9499 32.2914 21.1642 31.8391 20.725 31.2423C20.1808 30.5045 19.638 29.5333 19.2611 28.6811C18.281 26.4634 17.8239 23.973 16.7917 21.7305C16.2981 20.6584 15.4642 19.5733 14.7794 18.6208C14.0214 17.5647 13.172 16.787 12.5838 15.5106C12.3752 15.0569 12.0911 14.3303 12.401 13.8639C12.4994 13.5494 12.6386 13.4181 12.9499 13.3155C13.481 12.9062 14.9575 13.4514 15.5106 13.6806C16.9774 14.29 18.2017 14.8525 19.4444 15.6756C20.0402 16.0712 20.6439 16.5616 21.3649 17.0303H22.188C23.4756 17.0303 24.918 17.1391 26.1213 17.5047C28.247 18.1511 30.1525 19.165 31.8831 20.2577C37.1547 23.5867 41.4649 28.3295 44.4138 33.9817C44.8881 34.892 45.0935 35.7625 45.5111 36.7277C46.3539 38.6744 47.4161 40.6783 48.2547 42.5819C49.0919 44.4817 49.9075 46.3984 51.0906 47.9791C51.7127 48.8097 54.1145 49.2559 55.2063 49.7177C55.9717 50.0406 57.2256 50.3781 57.9503 50.8145C59.3345 51.6498 60.6756 52.6445 61.975 53.5591C62.6238 54.0156 64.6188 55.0188 64.7186 55.8456C61.5016 55.7575 59.0449 56.0575 56.9444 56.943C56.3477 57.1947 55.3952 57.2017 55.2977 57.9494C55.6258 58.293 55.6769 58.8067 55.9375 59.2295C56.4386 60.0405 57.2856 61.1289 58.0413 61.6989C58.8672 62.3223 59.7175 62.9884 60.6025 63.528C62.177 64.4875 63.9339 65.0359 65.4499 65.9973C66.3433 66.5645 67.3052 67.2784 68.1756 67.9178C68.6069 68.2342 68.5933 68.7259 69.5308 68.9242V68.8333C69.0625 68.4606 69.0874 67.9459 68.8174 67.5545ZM23.8347 20.9992C23.1639 20.9866 22.6563 21.0728 22.1875 21.1816V21.25H22.2803C22.6005 21.7188 23.1653 22.3422 23.5605 22.9084L24.4755 24.8341L24.566 24.7464C25.1327 24.3466 25.3924 23.71 25.3891 22.735C25.1627 22.4964 25.1285 22.1978 24.9325 21.9128C24.671 21.5336 24.1642 21.3184 23.8347 20.9992Z" fill="#00618A"/>
</g>
<defs>
<filter id="filter0_d_95_192" x="-12" y="-8" width="104" height="104" filterUnits="userSpaceOnUse" color-interpolation-filters="sRGB">
<feFlood flood-opacity="0" result="BackgroundImageFix"/>
<feColorMatrix in="SourceAlpha" type="matrix" values="0 0 0 0 0 0 0 0 0 0 0 0 0 0 0 0 0 0 127 0" result="hardAlpha"/>
<feOffset dy="4"/>
<feGaussianBlur stdDeviation="6"/>
<feComposite in2="hardAlpha" operator="out"/>
<feColorMatrix type="matrix" values="0 0 0 0 0 0 0 0 0 0 0 0 0 0 0 0 0 0 0.1 0"/>
<feBlend mode="normal" in2="BackgroundImageFix" result="effect1_dropShadow_95_192"/>
<feBlend mode="normal" in="SourceGraphic" in2="effect1_dropShadow_95_192" result="shape"/>
</filter>
</defs>
</svg>
