<svg width="80" height="80" viewBox="0 0 80 80" fill="none" xmlns="http://www.w3.org/2000/svg">
<path d="M64.5869 13.1139C63.7466 15.1299 62.6708 17.0394 61.382 18.8027C55.7354 13.1593 48.0793 9.98878 40.0961 9.98781C23.5863 9.98781 10 23.5853 10 40.1134C9.99982 44.1949 10.8284 48.2338 12.4354 51.9856C14.0425 55.7373 16.3946 59.1236 19.3492 61.9394L20.4592 62.9237C25.884 67.4975 32.7501 70.008 39.8458 70.0122C55.5428 70.0122 68.7381 57.7122 69.8556 42.0358C70.6764 34.3619 68.4255 24.6559 64.5869 13.1139V13.1139ZM23.6252 62.1109C23.3835 62.4087 23.0785 62.6488 22.7323 62.8137C22.3861 62.9786 22.0075 63.0643 21.6241 63.0644C20.2094 63.0644 19.052 61.9 19.052 60.4853C19.052 59.0711 20.2169 57.9067 21.6241 57.9067C22.21 57.9067 22.7889 58.1097 23.2422 58.4852C24.3442 59.3758 24.5162 61.0089 23.6252 62.1109ZM64.4622 53.0931C57.0358 62.9941 41.1747 59.657 31.0047 60.1338C31.0047 60.1338 29.1991 60.2434 27.3855 60.5402C27.3855 60.5402 28.0652 60.2509 28.9487 59.9148C36.0859 57.43 39.4628 56.9453 43.8011 54.7183C51.97 50.5609 60.0452 41.4648 61.7261 32.0013C58.615 41.1053 49.187 48.9278 40.5963 52.1083C34.7102 54.2809 24.0784 56.3908 24.0784 56.3908L23.6486 56.1639C16.4102 52.6398 16.1908 36.9559 29.3472 31.892C35.1086 29.6725 40.6197 30.8917 46.8423 29.4067C53.4869 27.8284 61.1711 22.8423 64.2977 16.3408C67.7997 26.7423 72.0133 43.0277 64.4617 53.0931H64.4622Z" fill="#77BC1F"/>
</svg>
