<svg width="50" height="50" viewBox="0 0 50 50" fill="none" xmlns="http://www.w3.org/2000/svg">
<g clip-path="url(#clip0_99_51)">
<mask id="mask0_99_51" style="mask-type:luminance" maskUnits="userSpaceOnUse" x="0" y="0" width="50" height="50">
<path d="M45.8333 0H4.16667C1.86548 0 0 1.86548 0 4.16667V45.8333C0 48.1345 1.86548 50 4.16667 50H45.8333C48.1345 50 50 48.1345 50 45.8333V4.16667C50 1.86548 48.1345 0 45.8333 0Z" fill="white"/>
</mask>
<g mask="url(#mask0_99_51)">
<mask id="mask1_99_51" style="mask-type:luminance" maskUnits="userSpaceOnUse" x="0" y="0" width="50" height="50">
<path d="M41.6667 0H8.33333C3.73096 0 0 3.73096 0 8.33333V41.6667C0 46.269 3.73096 50 8.33333 50H41.6667C46.269 50 50 46.269 50 41.6667V8.33333C50 3.73096 46.269 0 41.6667 0Z" fill="white"/>
</mask>
<g mask="url(#mask1_99_51)">
<path d="M41.6667 0H8.33333C3.73096 0 0 3.73096 0 8.33333V41.6667C0 46.269 3.73096 50 8.33333 50H41.6667C46.269 50 50 46.269 50 41.6667V8.33333C50 3.73096 46.269 0 41.6667 0Z" fill="#4EE3BD"/>
<path d="M34.131 29.1064C33.3106 29.1064 32.6839 28.7885 32.2506 28.1525C31.8174 27.5165 31.6008 26.5579 31.6008 25.2766C31.6008 24.9725 31.6146 24.6544 31.6422 24.3226C31.7529 22.7189 32.0754 21.5205 32.6101 20.7279C33.1447 19.9351 33.8729 19.5389 34.7946 19.5389H37.0206C37.0667 19.5389 37.1036 19.5526 37.1312 19.5803C37.1589 19.5987 37.1726 19.6264 37.1726 19.6633C37.1726 19.7278 37.1543 19.783 37.1174 19.8291L36.6335 20.4375C36.8178 20.714 36.9607 21.0182 37.0621 21.35H38.1543L38.2926 19.4005C38.311 19.2347 38.4032 19.1516 38.5692 19.1516H40.0071C40.1821 19.1516 40.2606 19.2347 40.2421 19.4005L39.4817 30.2816C39.4724 30.4476 39.3757 30.5305 39.1912 30.5305H37.7533C37.5967 30.5305 37.5229 30.4476 37.5322 30.2816L37.7396 27.3505H36.6196C36.085 28.5211 35.2554 29.1064 34.131 29.1064ZM34.2554 27.5165C34.5687 27.5165 34.8222 27.2629 35.0158 26.756C35.2186 26.2398 35.3615 25.4287 35.4444 24.3226C35.4721 23.9171 35.4858 23.553 35.4858 23.2304C35.4858 21.8293 35.2232 21.1289 34.6978 21.1289C34.0894 21.1289 33.7115 22.1935 33.564 24.3226C33.5364 24.7466 33.5226 25.1246 33.5226 25.4564C33.5226 26.8297 33.7668 27.5165 34.2554 27.5165ZM40.4771 30.8071C40.3204 30.8071 40.2421 30.7241 40.2421 30.5582L41.044 19.2208C41.0624 19.0548 41.15 18.9719 41.3067 18.9719H42.7999C42.975 18.9719 43.0533 19.0548 43.0349 19.2208L42.2331 30.5582C42.2331 30.6319 42.21 30.6918 42.1639 30.7379C42.1178 30.784 42.0533 30.8071 41.9703 30.8071H40.4771ZM37.864 25.5255L38.0299 23.1751H37.2971C37.3064 23.4885 37.2971 23.871 37.2694 24.3226C37.251 24.6453 37.205 25.0462 37.1312 25.5255H37.864Z" fill="white"/>
<path d="M23.3369 29.0926C23.3001 29.1203 23.2586 29.1341 23.2125 29.1341C23.1388 29.1341 23.0789 29.0972 23.0328 29.0235L22.2724 28.0972C22.2447 28.0511 22.2308 28.0141 22.2308 27.9865C22.2308 27.9036 22.2954 27.8114 22.4244 27.71C23.1433 27.1201 23.6733 26.4287 24.0144 25.6361C24.3554 24.8435 24.5629 23.9355 24.6367 22.9123L24.7333 21.5297H23.4338L23.3508 22.6358C23.2771 23.7511 22.959 24.7973 22.3968 25.7744C21.8437 26.7514 21.0004 27.6271 19.8667 28.4014C19.8482 28.4197 19.816 28.429 19.7699 28.429C19.7053 28.429 19.65 28.3875 19.6039 28.3046L18.8297 27.3782C18.8021 27.3321 18.7882 27.2953 18.7882 27.2676C18.7882 27.1846 18.8528 27.1016 18.9818 27.0187C19.8113 26.4565 20.4104 25.8204 20.7792 25.1107C21.1571 24.3918 21.3783 23.6129 21.4428 22.7741L21.5257 21.5297H19.9219C19.7653 21.5297 19.6915 21.4468 19.7007 21.281L19.7836 20.0641C19.8021 19.8983 19.8943 19.8154 20.0601 19.8154H27.0424C27.1438 19.8154 27.1944 19.8614 27.1944 19.9536C27.1944 19.9997 27.176 20.055 27.1392 20.1196L26.6967 20.7416L26.5585 22.7741C26.4754 24.0276 26.1712 25.1937 25.646 26.2721C25.1206 27.3505 24.3508 28.2907 23.3369 29.0926ZM27.236 30.8071C27.07 30.8071 26.9962 30.7287 27.0147 30.5721L27.8165 19.2208C27.835 19.0548 27.9181 18.9719 28.0654 18.9719H29.5172C29.6831 18.9719 29.7568 19.0548 29.7385 19.2208L29.4481 23.3962H31.1486C31.3054 23.3962 31.3837 23.4654 31.3837 23.6037C31.3837 23.659 31.3744 23.7051 31.3561 23.7419L30.7339 24.8618C30.6601 25.0186 30.5311 25.0969 30.3468 25.0969H29.3236L28.9365 30.5721C28.9181 30.7287 28.8306 30.8071 28.6737 30.8071H27.236Z" fill="white"/>
<path d="M10.7456 31.1111C9.98054 31.1111 9.37681 31.065 8.93437 30.9729C8.50115 30.8899 8.18776 30.7517 7.99421 30.5581C7.80986 30.3645 7.70386 30.1018 7.67621 29.77L7.66237 29.5072C7.66237 29.2216 7.70846 28.7561 7.80064 28.1109C7.81907 28.0556 7.84211 28.0141 7.86976 27.9864C7.90664 27.9588 7.96656 27.945 8.04951 27.945H14.8243L14.8657 27.461H8.13246C7.96656 27.461 7.89281 27.3781 7.91125 27.2122L7.96656 26.2859C7.98499 26.1292 8.07715 26.0509 8.24307 26.0509H16.7599C16.9258 26.0509 16.9996 26.1292 16.9811 26.2859L16.8014 28.9404C16.7829 29.1248 16.6815 29.217 16.4972 29.217H9.70864L9.6948 29.3967C9.68558 29.535 9.75011 29.6317 9.88837 29.6871C10.0358 29.7424 10.3262 29.77 10.7594 29.77C13.6629 29.77 15.6631 29.7102 16.7599 29.5903C16.889 29.5903 16.9719 29.5949 17.0087 29.6041C17.0457 29.6225 17.0594 29.6686 17.0503 29.7424L16.9811 30.641C16.9811 30.6871 16.9535 30.7332 16.8982 30.7793C16.8521 30.8254 16.7922 30.8531 16.7185 30.8622C15.9903 30.9729 15.1331 31.042 14.1468 31.0696C13.1698 31.0973 12.036 31.1111 10.7456 31.1111ZM7.28907 25.5254C7.11394 25.5254 7.02637 25.4517 7.02637 25.3042L7.10933 24.2534C7.10933 24.1152 7.19229 24.046 7.35821 24.046H11.6858L11.7272 23.4377H9.79158C8.75003 23.4377 8.26611 22.9768 8.33986 22.055L8.54725 19.1654C8.54725 19.0825 8.57029 19.0179 8.61637 18.9718C8.66246 18.9166 8.7316 18.8889 8.82376 18.8889H10.4552C10.5935 18.8889 10.6626 18.9581 10.6626 19.0963L10.6073 19.9121H15.3082L15.3635 19.0963C15.3635 19.0318 15.3819 18.9811 15.4187 18.9442C15.4649 18.9074 15.5247 18.8889 15.5985 18.8889H17.7968C17.8429 18.8889 17.8799 18.9028 17.9075 18.9304C17.9351 18.9581 17.9489 18.9949 17.9489 19.041C17.9489 19.0963 17.9306 19.1424 17.8936 19.1793L17.4236 19.8567L17.2024 23.0782C17.1932 23.1611 17.1517 23.2395 17.0779 23.3132C17.0133 23.387 16.935 23.4239 16.8429 23.4239H13.7597L13.7182 24.046H18.184C18.2946 24.046 18.3499 24.0875 18.3499 24.1704C18.3499 24.2074 18.3361 24.2488 18.3085 24.2949L17.6725 25.3042C17.6356 25.3688 17.5849 25.4241 17.5204 25.4702C17.4558 25.507 17.3821 25.5254 17.2992 25.5254H7.28907ZM10.4691 21.8477C10.4691 21.9029 10.4921 21.9491 10.5382 21.986C10.5843 22.0228 10.6396 22.0413 10.7041 22.0413C11.1281 22.0504 11.8793 22.055 12.9577 22.055H15.1561L15.2114 21.267H10.5105L10.4691 21.82V21.8477Z" fill="white"/>
</g>
</g>
</g>
<defs>
<clipPath id="clip0_99_51">
<rect width="50" height="50" fill="white"/>
</clipPath>
</defs>
</svg>
