<svg width="50" height="50" viewBox="0 0 50 50" fill="none" xmlns="http://www.w3.org/2000/svg">
<rect width="50" height="50" fill="white"/>
<g clip-path="url(#clip0_102_145)">
<path d="M29.6068 22.3423V32.9768L20.3932 38.2961V27.6575L29.6068 22.3423Z" fill="white" stroke="#03C75A" stroke-miterlimit="10" stroke-linejoin="round"/>
<path d="M29.6068 22.3379V22.3423L20.3932 27.6575L11.1796 22.3423V22.3379L20.3932 17.0186L29.6068 22.3379Z" fill="white" stroke="#03C75A" stroke-miterlimit="10" stroke-linejoin="round"/>
<path d="M20.3932 27.6575V38.2961L11.1796 32.9768V22.3423L20.3932 27.6575Z" fill="#03C75A" stroke="#03C75A" stroke-miterlimit="10" stroke-linejoin="round"/>
<path d="M38.8203 27.666V38.3005L29.6068 43.6198V32.9812L38.8203 27.666Z" fill="white" stroke="#03C75A" stroke-miterlimit="10" stroke-linejoin="round"/>
<path d="M38.8204 27.6616V27.666L29.6068 32.9812L20.3932 27.666V27.6616L29.6068 22.3423L38.8204 27.6616Z" fill="#03C75A" stroke="#03C75A" stroke-miterlimit="10" stroke-linejoin="round"/>
<path d="M29.6068 32.9812V43.6198L20.3932 38.3005V27.666L29.6068 32.9812Z" fill="white" stroke="#03C75A" stroke-miterlimit="10" stroke-linejoin="round"/>
<path d="M29.6068 11.7036V22.3381L20.3932 27.6574V17.0188L29.6068 11.7036Z" fill="white" stroke="#03C75A" stroke-miterlimit="10" stroke-linejoin="round"/>
<path d="M29.6068 11.6992V11.7036L20.3932 17.0188L11.1796 11.7036V11.6992L20.3932 6.37988L29.6068 11.6992Z" fill="#03C75A" stroke="#03C75A" stroke-miterlimit="10" stroke-linejoin="round"/>
<path d="M20.3932 17.0188V27.6574L11.1796 22.3381V11.7036L20.3932 17.0188Z" fill="white" stroke="#03C75A" stroke-miterlimit="10" stroke-linejoin="round"/>
<path d="M13.765 22.0818L13.7678 21.6922L13.3664 21.4548L13.3693 21.0398L12.9904 20.8156L12.9934 20.3754L12.6515 20.1732L12.6629 18.5872L12.9752 18.7718L12.9777 18.4077L13.9345 18.9735L13.9318 19.3377L14.2441 19.5224L14.2384 20.3097L14.5431 20.4901L14.5404 20.8881L15.2414 21.3026L15.2443 20.8826L15.7304 21.0762L15.7657 16.1774L15.9708 16.3928L15.9742 15.9277L16.8715 16.4584L16.8685 16.8648L17.2254 17.0758L17.1838 22.8535L16.842 22.6513L16.8388 23.0916L16.4597 22.8673L16.4567 23.2824L16.0553 23.045L16.0523 23.4343L13.765 22.0818Z" fill="#03C75A"/>
<path d="M16.0528 16.0664L16.7918 16.5035L16.7895 16.8185L16.7888 16.9101L16.8676 16.9567L17.1457 17.1211L17.1055 22.7148L17.0014 22.6532L16.7634 22.5124L16.7614 22.7888L16.7602 22.9526L16.6191 22.8692L16.381 22.7284L16.379 23.0048L16.3781 23.1434L16.2145 23.0466L15.9765 22.9058L15.9744 23.1823L15.9735 23.2954L13.8445 22.0362L13.8466 21.7382L13.8473 21.6467L13.7685 21.6001L13.4457 21.4093L13.4479 21.0858L13.4486 20.9942L13.3698 20.9477L13.0695 20.77L13.072 20.4211L13.0727 20.3296L12.9938 20.283L12.7305 20.1274L12.7406 18.7256L12.8148 18.7694L13.0529 18.9102L13.0549 18.6338L13.0556 18.5461L13.8539 19.0182L13.8518 19.2907L13.8512 19.3823L13.93 19.4289L14.1635 19.567L14.1585 20.263L14.1578 20.3545L14.2366 20.4011L14.4627 20.5349L14.4604 20.8414L14.4597 20.9329L14.5385 20.9794L15.0813 21.3004L15.3193 21.4413L15.3213 21.1649L15.3225 20.9994L15.5924 21.1069L15.8084 21.193L15.81 20.9604L15.8429 16.3744L16.048 16.5898L16.0508 16.1966L16.0517 16.0666M15.8956 15.7888L15.8927 16.1952L15.6875 15.9799L15.6519 20.959L15.1657 20.7655L15.1628 21.1635L14.6201 20.8425L14.6231 20.4445L14.3182 20.2644L14.3239 19.4768L14.0117 19.2921L14.0145 18.9279L12.8993 18.2685L12.8966 18.6326L12.5845 18.448L12.5718 20.2178L12.9137 20.42L12.9105 20.8602L13.2896 21.0844L13.2867 21.4994L13.6881 21.7368L13.6853 22.1264L16.131 23.5728L16.1337 23.1832L16.5351 23.4206L16.538 23.0055L16.9172 23.2297L16.9203 22.7895L17.2622 22.9917L17.3052 17.0303L16.9483 16.8192L16.9512 16.4128L15.8956 15.7888Z" fill="white"/>
<path d="M13.765 32.7205L13.7678 32.3309L13.3664 32.0935L13.3693 31.6785L12.9904 31.4543L12.9934 31.014L12.6515 30.8118L12.6629 29.2258L12.9752 29.4105L12.9777 29.0463L13.9345 29.6122L13.9318 29.9763L14.2441 30.161L14.2384 30.9484L14.5431 31.1287L14.5404 31.5267L15.2414 31.9413L15.2443 31.5213L15.7304 31.7148L15.7657 26.8161L15.9708 27.0314L15.9742 26.5664L16.8715 27.097L16.8685 27.5034L17.2254 27.7145L17.1838 33.4921L16.842 33.29L16.8388 33.7302L16.4597 33.506L16.4567 33.921L16.0553 33.6836L16.0523 34.073L13.765 32.7205Z" fill="white"/>
<path d="M16.0528 26.7051L16.7918 27.1421L16.7895 27.4572L16.7888 27.5487L16.8676 27.5953L17.1457 27.7598L17.1055 33.3534L17.0014 33.2919L16.7634 33.151L16.7614 33.4275L16.7602 33.5913L16.6191 33.5079L16.381 33.3671L16.379 33.6435L16.3781 33.7821L16.2145 33.6853L15.9765 33.5445L15.9744 33.8209L15.9735 33.9341L13.8445 32.6749L13.8466 32.3769L13.8473 32.2853L13.7685 32.2388L13.4457 32.0479L13.4479 31.7244L13.4486 31.6329L13.3698 31.5864L13.0695 31.4087L13.072 31.0598L13.0727 30.9682L12.9938 30.9217L12.7305 30.766L12.7406 29.3642L12.8148 29.4081L13.0529 29.5489L13.0549 29.2725L13.0556 29.1848L13.8539 29.6568L13.8518 29.9294L13.8512 30.021L13.93 30.0675L14.1635 30.2057L14.1585 30.9017L14.1578 30.9932L14.2366 31.0398L14.4627 31.1736L14.4604 31.48L14.4597 31.5716L14.5385 31.6182L15.0813 31.9391L15.3193 32.08L15.3213 31.8035L15.3225 31.6381L15.5924 31.7456L15.8084 31.8317L15.81 31.5991L15.8429 27.0131L16.048 27.2285L16.0508 26.8353L16.0517 26.7053M15.8956 26.4275L15.8927 26.8339L15.6875 26.6185L15.6519 31.5977L15.1657 31.4041L15.1628 31.8022L14.6201 31.4812L14.6231 31.0832L14.3182 30.903L14.3239 30.1155L14.0117 29.9308L14.0145 29.5667L12.8993 28.9072L12.8966 29.2713L12.5845 29.0866L12.5718 30.8565L12.9137 31.0586L12.9105 31.4989L13.2896 31.7231L13.2867 32.1381L13.6881 32.3755L13.6853 32.7651L16.131 34.2114L16.1337 33.8219L16.5351 34.0592L16.538 33.6442L16.9172 33.8684L16.9203 33.4282L17.2622 33.6303L17.3052 27.6689L16.9483 27.4579L16.9512 27.0515L15.8956 26.4275Z" fill="white"/>
<path d="M23.7785 39.0316L23.7814 38.5596L23.3555 38.2983L23.3582 37.8683L22.925 37.6028L22.9277 37.1473L22.4721 36.8679L22.475 36.404L21.9968 36.111L22.0279 30.9587L22.4164 31.197L22.4189 30.7754L23.2612 31.292L23.2587 31.7136L23.6247 31.938L23.6008 35.9013L23.9818 36.1351L23.9786 36.6662L24.3521 36.8954L24.3486 37.4603L24.9774 37.8461L24.9809 37.2811L25.3543 37.5101L25.3575 36.9787L25.7384 37.2123L25.7623 33.2487L26.1357 33.4777L26.1382 33.0561L26.9808 33.5727L26.9781 33.9943L27.3665 34.2326L27.3354 39.3849L26.8574 39.0916L26.8547 39.5554L26.399 39.276L26.3963 39.7315L25.9631 39.4657L25.9606 39.896L25.5274 39.6302L25.5247 40.1025L23.7785 39.0316Z" fill="#03C75A"/>
<path d="M22.4975 30.9166L23.1814 31.3359L23.1794 31.6678L23.179 31.7575L23.2553 31.8043L23.5449 31.982L23.5215 35.8558L23.521 35.9455L23.5974 35.9923L23.9018 36.179L23.8991 36.6206L23.8986 36.7103L23.9749 36.7572L24.2718 36.9393L24.2689 37.4148L24.2684 37.5045L24.3447 37.5513L24.8152 37.8398L25.0555 37.9872L25.0574 37.7051L25.0589 37.422L25.1918 37.5036L25.4322 37.651L25.4338 37.3689L25.4353 37.1197L25.5757 37.2058L25.8161 37.3532L25.8177 37.0711L25.8399 33.3897L25.9728 33.4713L26.2132 33.6187L26.2148 33.3365L26.2157 33.1968L26.8997 33.6161L26.8976 33.948L26.8972 34.0378L26.9735 34.0846L27.2854 34.2758L27.2554 39.2423L27.0178 39.0967L26.7774 38.9493L26.7758 39.2314L26.7747 39.4131L26.5596 39.2811L26.3193 39.1337L26.3177 39.4159L26.3165 39.5892L26.1239 39.471L25.8835 39.3236L25.8819 39.6057L25.881 39.7539L25.6882 39.6357L25.4478 39.4883L25.446 39.7704L25.4449 39.9606L23.8573 38.987L23.8596 38.6044L23.86 38.5147L23.7837 38.4679L23.4343 38.2537L23.4363 37.9132L23.4368 37.8234L23.3605 37.7767L23.0038 37.5579L23.0061 37.1921L23.0065 37.1024L22.9302 37.0556L22.5511 36.823L22.5533 36.4489L22.5538 36.3591L22.4775 36.3124L22.0759 36.0661L22.1059 31.0997L22.2537 31.1903L22.4941 31.3377L22.4957 31.0556L22.4966 30.9159M22.3403 30.6335L22.3378 31.0551L21.9493 30.8171L21.9173 36.1552L22.3953 36.4482L22.3925 36.9121L22.8482 37.1915L22.8455 37.6469L23.2787 37.9125L23.2762 38.3425L23.7019 38.6035L23.6992 39.0758L25.6037 40.2436L25.6066 39.7713L26.0398 40.0369L26.0423 39.6069L26.4755 39.8724L26.4782 39.417L26.9339 39.6964L26.9367 39.2325L27.4146 39.5256L27.4466 34.1875L27.0582 33.9494L27.0607 33.5278L26.0598 32.914L26.0573 33.3356L25.6839 33.1066L25.66 37.0702L25.2791 36.8366L25.2759 37.368L24.9024 37.139L24.899 37.704L24.4286 37.4155L24.432 36.8505L24.0585 36.6215L24.0617 36.0902L23.6808 35.8567L23.7046 31.8931L23.3386 31.6687L23.3412 31.2471L22.3403 30.6335Z" fill="white"/>
</g>
<defs>
<clipPath id="clip0_102_145">
<rect width="38" height="38" fill="white" transform="translate(6 6)"/>
</clipPath>
</defs>
</svg>
